PathFileType	4	(X/Y/Z)	S01_0013_Gait_markers.trc
DataRate	CameraRate	NumFrames	NumMarkers	Units	OrigDataRate	OrigDataStartFrame	OrigNumFrames
250.000000	250.000000	4	54	mm	250.000000	174	349
Frame#	Time	HEAD_ANT			R_HEAD			L_HEAD			C7			R_BACK			L_BACK			STERNUM			R_ACROMION			R_HUM_PROX			R_HUM_ANT			R_HUM_POST			R_ELBOW_LAT			R_ELBOW_MED			R_FOREARM			R_WIRST_LAT			R_WRITS_MED			R_HAND			L_ACROMION			L_HUM_PROX			L_HUM_ANT			L_HUM_POST			L_ELBOW_LAT			L_ELBOW_MED			L_FOREARM			L_WRIST_LAT			L_WIRST_MED			L_HAND			R_ILIAC			SACRUM			L_ILIAC			R_GTROCH			R_THIGH__1			R_THIGH_2			R_THIGH_3			R_THIGH_4			R_SHANK_1			R_SHANK_2			R_SHANK_3			R_SHANK_4			R_HEEL			R_FOOT_LAT			R_FOOT_MED			L_GTROCH			L_THIGH_1			L_THIGH_2			L_THIGH_3			L_THIGH_4			L_SHANK_1			L_SHANK_2			L_SHANK_3			L_SHANK_4			L_HEEL			L_FOOT_LAT			L_FOOT_MED			
		X1	Y1	Z1	X2	Y2	Z2	X3	Y3	Z3	X4	Y4	Z4	X5	Y5	Z5	X6	Y6	Z6	X7	Y7	Z7	X8	Y8	Z8	X9	Y9	Z9	X10	Y10	Z10	X11	Y11	Z11	X12	Y12	Z12	X13	Y13	Z13	X14	Y14	Z14	X15	Y15	Z15	X16	Y16	Z16	X17	Y17	Z17	X18	Y18	Z18	X19	Y19	Z19	X20	Y20	Z20	X21	Y21	Z21	X22	Y22	Z22	X23	Y23	Z23	X24	Y24	Z24	X25	Y25	Z25	X26	Y26	Z26	X27	Y27	Z27	X28	Y28	Z28	X29	Y29	Z29	X30	Y30	Z30	X31	Y31	Z31	X32	Y32	Z32	X33	Y33	Z33	X34	Y34	Z34	X35	Y35	Z35	X36	Y36	Z36	X37	Y37	Z37	X38	Y38	Z38	X39	Y39	Z39	X40	Y40	Z40	X41	Y41	Z41	X42	Y42	Z42	X43	Y43	Z43	X44	Y44	Z44	X45	Y45	Z45	X46	Y46	Z46	X47	Y47	Z47	X48	Y48	Z48	X49	Y49	Z49	X50	Y50	Z50	X51	Y51	Z51	X52	Y52	Z52	X53	Y53	Z53	X54	Y54	Z54	

175	0.6960000000000001	1039.161254882812	1712.953979492188	-310.6961975097652	983.688720703125	1660.532104492188	-231.352874755859	979.3345336914062	1663.870361328125	-379.3771362304684	846.1224365234375	1491.62744140625	-302.0536804199215	776.7333374023438	1299.685668945312	-221.9005584716794	769.9033203125	1296.39599609375	-360.7222900390622	1023.022705078125	1327.177001953125	-307.4485168457028	937.1257934570312	1447.203491210938	-133.7912902832028	923.0740966796875	1289.34130859375	-38.60374832153292	991.4197387695312	1208.768920898438	-46.22252273559543	873.8517456054688	1201.577514648438	-14.40474605560276	931.4380493164062	1097.608276367188	-17.2267684936521	895.1919555664062	1089.11962890625	-92.7221298217771	1066.08056640625	938.3777465820312	-39.49987411499003	1111.2353515625	883.5350341796875	-86.97718048095683	1056.583740234375	845.5844116210938	-39.93246459960919	1142.28173828125	800.4152221679688	-36.77090072631818	913.2227783203125	1442.36083984375	-472.052825927734	874.0579223632812	1278.148315429688	-564.1197509765623	930.6806030273438	1193.868286132813	-573.429504394531	806.9545288085938	1204.778198242188	-583.6375732421873	861.2356567382812	1095.635498046875	-597.7562255859373	808.905029296875	1094.346069335938	-539.2874755859373	946.22119140625	910.1960449218751	-589.508117675781	966.19384765625	844.0161743164064	-537.8146362304685	924.2271118164062	831.1026000976564	-603.2565307617185	992.1122436523438	764.4761962890626	-588.2759399414061	912.5828247070312	1040.244995117188	-123.6246643066404	794.9644165039062	1012.743591308594	-302.2203979492185	923.591796875	1040.504272460938	-469.2923583984373	849.0005493164062	904.2203979492188	-118.4223861694334	814.6946411132812	636.7880859375	-141.1595458984374	872.7982788085938	637.1588745117188	-130.8727569580077	852.3330688476562	536.4274291992188	-163.3771057128905	791.7261962890625	560.5697021484375	-160.8412475585936	660.9275512695312	379.8739624023438	-159.9679718017577	693.1098022460938	330.2944030761719	-173.7568054199218	639.8902587890625	265.1493225097657	-193.3368377685546	592.608154296875	307.7423706054688	-185.1779785156249	440.6722106933594	171.6192016601563	-268.1120910644531	536.6089477539062	27.26604461669926	-207.5995635986328	595.3099365234375	31.0728721618653	-301.8589477539062	912.2713623046875	930.5656127929689	-480.3364257812498	1087.027954101562	679.5312500000001	-442.9967041015623	1033.038452148438	679.2262573242189	-467.8973999023436	1048.69775390625	578.7419433593751	-433.527862548828	1105.449096679688	603.7333984375001	-415.7223205566405	1143.59423828125	333.9304504394532	-411.9524230957031	1092.588134765625	301.1350708007814	-418.3496398925781	1105.847900390625	216.1961364746095	-400.4393920898437	1165.647705078125	235.8666534423829	-387.5176086425781	1093.48876953125	37.33166122436531	-327.2091064453125	1271.536010742188	24.28602600097665	-389.5932312011719	1304.857666015625	40.73812103271491	-289.8095092773438	
176	0.7000000000000001	1044.75390625	1713.48583984375	-311.5045166015621	989.3564453125	1661.14892578125	-232.4250030517574	985.1267700195312	1664.392333984375	-380.4828491210934	852.1747436523438	1492.179565429688	-303.1216125488278	782.7227172851562	1299.839599609375	-222.6818237304685	775.96826171875	1296.569458007812	-361.706848144531	1029.169311523438	1327.713745117188	-307.7090759277341	942.7534790039062	1447.820922851562	-134.4382019042966	927.8938598632812	1289.982543945312	-39.23160552978487	996.1599731445312	1209.22021484375	-46.16168212890598	878.2626342773438	1202.305053710938	-15.4243316650388	935.903564453125	1098.130126953125	-17.74206352233862	900.0234985351562	1089.686279296875	-93.24519348144507	1070.538696289062	938.7921752929688	-39.1583023071287	1115.86572265625	884.01025390625	-86.37388610839824	1061.079345703125	846.4761962890625	-39.81980514526349	1146.526489257812	800.9068603515625	-36.23566055297834	919.7532348632812	1442.543090820312	-472.6230163574215	880.7866821289062	1278.08935546875	-564.5560302734373	937.550537109375	1193.76611328125	-573.574279785156	813.8270874023438	1204.596435546875	-584.2274780273435	868.5435180664062	1095.56103515625	-597.6301269531248	815.7459716796875	1094.173461914063	-539.5311889648435	952.7495727539062	909.9054565429689	-589.6803588867185	972.5330200195312	843.8204956054689	-538.1447143554685	930.5208129882812	830.9904785156251	-603.4335327148435	998.4290161132812	764.1840209960939	-588.6457519531249	919.5578002929688	1040.337890625	-124.0687255859373	801.0267333984375	1013.197875976563	-302.1417846679685	927.9534912109375	1041.142456054688	-470.1770935058591	855.767578125	903.6080322265625	-118.789596557617	823.077880859375	636.0625610351562	-141.1530456542967	880.9093627929688	636.8963623046875	-130.547409057617	861.2677001953125	535.8432006835938	-162.5702362060546	800.6124877929688	559.6041259765625	-160.2557220458983	668.8699951171875	380.9551086425782	-159.1244201660155	700.2894287109375	330.5327758789063	-172.8735961914062	646.302001953125	266.1584472656251	-192.1619262695312	599.5469360351562	309.0228271484376	-184.4073028564453	446.5041809082031	175.8176422119141	-266.5161437988281	537.8621215820312	28.31053352355962	-207.5381317138672	595.6639404296875	31.14188194274909	-301.9162292480469	918.3453979492188	932.2015991210939	-480.4912414550779	1094.041625976562	681.0785522460939	-442.4345092773436	1040.271240234375	680.5117187500001	-467.6953124999998	1056.287231445312	580.0397949218751	-433.7269592285155	1112.626953125	604.9536132812501	-415.3610534667968	1148.128051757812	333.7119445800782	-411.6431884765624	1096.992431640625	301.4023437500001	-418.8892211914062	1108.8291015625	216.4848022460938	-401.0073242187499	1168.741943359375	235.3474426269532	-387.4431762695312	1094.034545898438	37.72186279296882	-327.209716796875	1272.05029296875	23.96668052673348	-389.6831359863281	1304.990844726562	38.57210922241217	-288.7310180664062	
177	0.704	1050.434936523438	1714.005004882812	-312.4311218261715	994.9888916015625	1661.734619140625	-233.1632995605465	990.9315185546875	1664.902221679688	-381.2253417968746	858.1605834960938	1492.755737304688	-303.8131713867184	788.4348754882812	1300.057861328125	-223.5544738769528	782.0354614257812	1296.912231445312	-362.7725524902341	1035.077026367188	1328.2587890625	-308.3202819824216	948.2721557617188	1448.4365234375	-134.9349670410153	932.6277465820312	1290.605834960938	-39.82590484619112	1000.797668457031	1209.816772460938	-46.06267929077121	882.6646728515625	1202.998413085938	-16.16013526916477	940.265380859375	1098.837890625	-18.07729721069311	905.0275268554688	1090.248413085938	-93.91996765136695	1074.94921875	939.2254028320312	-38.90122604370097	1120.396850585938	884.5137329101562	-85.93191528320293	1065.321655273438	846.96142578125	-39.71807861328107	1150.823120117188	801.366455078125	-35.6013984680174	926.1931762695312	1442.739990234375	-473.4731140136715	887.62646484375	1278.00439453125	-565.0792846679685	944.505126953125	1193.79296875	-573.6759643554685	820.7786254882812	1204.576049804688	-584.7145385742185	875.3251342773438	1095.626220703125	-597.9583740234373	822.5767822265625	1094.196411132813	-539.9743652343748	959.3165283203125	909.8073120117189	-589.7811279296873	978.8099365234375	843.3985595703126	-538.0157470703123	936.949462890625	830.8717651367189	-603.5995483398435	1004.757690429688	763.9920654296876	-589.0605468749999	926.6036376953125	1040.6044921875	-124.539726257324	807.1505737304688	1013.650512695313	-301.996154785156	933.5128784179688	1042.219116210938	-471.0478820800779	862.4938354492188	903.076171875	-118.8628997802732	831.3707885742188	635.4256591796875	-140.8109283447264	889.2755126953125	636.4389038085938	-130.3289794921874	870.277587890625	535.2471313476562	-161.7713012695311	809.5391845703125	558.6094360351562	-159.7988433837889	676.9091186523438	381.6680908203126	-158.098419189453	707.7601928710938	331.1846008300782	-171.1418151855468	653.1244506835938	267.1239013671876	-190.4716186523437	606.8493041992188	310.7427368164063	-183.3761444091796	452.7737121582031	180.2307281494141	-265.1645202636718	539.1766357421875	29.17947006225591	-207.4851531982422	596.0142211914062	31.27588462829597	-302.0419311523438	924.34814453125	933.8057250976564	-480.5954284667966	1101.116333007812	682.5216674804689	-441.7911071777342	1047.604614257812	681.9334716796876	-467.5389099121092	1063.706665039062	581.1384887695314	-434.2485961914061	1119.87548828125	606.6916503906251	-415.0421752929686	1152.554443359375	333.4762268066407	-411.5483703613281	1100.9951171875	301.7760620117189	-419.2062988281249	1111.935180664062	216.6075897216798	-401.0035400390624	1171.678833007812	234.7605438232423	-386.9147644042968	1094.603149414062	38.06425857543952	-327.2411193847656	1272.405639648438	23.76679611206063	-389.4929504394531	1305.425415039062	36.96928405761725	-287.7397766113281	
178	0.708	1056.07275390625	1714.528686523438	-313.4389953613277	1000.596618652344	1662.414306640625	-234.0988464355465	996.5914916992188	1665.343017578125	-382.2292480468746	863.4140014648438	1493.160888671875	-304.668792724609	794.321044921875	1300.3681640625	-224.5307464599607	788.0953979492188	1297.235473632812	-363.6639404296872	1040.95263671875	1328.887451171875	-308.8690185546872	953.9376220703125	1449.154174804688	-135.671463012695	937.4044799804688	1291.26806640625	-40.23951339721651	1005.446166992188	1210.431762695312	-46.09035873413059	887.1212768554688	1203.694213867188	-17.02426338195774	943.237060546875	1099.9306640625	-18.432434082031	909.6517333984375	1091.215698242188	-94.60842132568335	1079.143798828125	939.7703857421875	-38.82550811767558	1124.93701171875	885.12255859375	-85.51791381835918	1069.4794921875	847.4989013671875	-39.52344131469708	1154.981567382812	801.8737182617188	-35.02407836914045	932.6107788085938	1442.92529296875	-473.967864990234	894.4810791015625	1278.0712890625	-565.5538940429685	951.430419921875	1193.984619140625	-573.797180175781	828.4717407226562	1204.702514648438	-585.7116088867185	882.1919555664062	1095.685668945313	-598.1639404296873	829.4619750976562	1094.356811523438	-539.9672851562498	965.8761596679688	909.7454223632814	-589.971252441406	985.4681396484375	843.2449951171876	-538.3048706054685	943.2975463867188	830.6986694335939	-603.7946166992185	1011.054504394531	763.9097900390626	-589.4674682617186	933.9354858398438	1041.02734375	-124.8989791870115	813.3203735351562	1013.967041015625	-301.902404785156	939.3235473632812	1043.323852539062	-471.4298095703123	869.3109741210938	902.6492919921875	-118.8518905639646	839.991455078125	635.0304565429688	-141.0692443847655	897.7291259765625	636.57568359375	-128.9481201171874	879.5969848632812	534.9169311523438	-160.8445892333983	818.7156372070312	557.3624877929688	-159.8650970458983	685.12744140625	382.5820312500001	-157.2187347412109	715.3040161132812	331.9627990722657	-169.8645629882812	660.0172729492188	268.0512084960938	-189.0872650146484	614.4487915039062	312.9107360839844	-180.3409576416015	459.536376953125	184.6226501464844	-264.0419616699218	540.4852294921875	30.21496009826665	-207.5230712890625	596.4361572265625	31.51494979858405	-301.9386901855469	930.3571166992188	935.3307495117189	-480.6709289550779	1108.135864257812	684.0488891601564	-441.0656738281248	1055.032836914062	683.1907348632814	-467.1956176757811	1070.956787109375	582.3762207031251	-434.621856689453	1126.813354492188	607.7964477539064	-414.6080932617186	1156.715576171875	333.4165039062501	-411.5018920898437	1105.033325195312	302.1633300781251	-419.6752014160156	1114.760375976562	216.961883544922	-401.4779052734374	1174.611572265625	234.4707183837891	-386.7087402343749	1095.064819335938	38.35994338989265	-327.2034912109375	1273.025268554688	23.83759117126473	-389.2444152832031	1305.755004882812	35.59582901000983	-286.8480834960938	
